<svg width="74" height="74" viewBox="0 0 74 74" fill="none" xmlns="http://www.w3.org/2000/svg">
<path d="M31.1734 55.9616H19.4876C18.2234 55.9616 17.1751 54.9132 17.1751 53.6491V37.8624C17.1751 34.6558 19.7959 32.0346 23.0026 32.0346H31.1734C32.4376 32.0346 33.4859 33.0829 33.4859 34.3471V53.6179C33.4859 54.9129 32.4376 55.9616 31.1734 55.9616ZM21.8001 51.3366H28.8609V36.6907H23.0026C22.3551 36.6907 21.8001 37.2146 21.8001 37.8929V51.3366Z" fill="#00DA71"/>
<path d="M42.8263 55.9616H31.1404C29.8763 55.9616 28.828 54.9133 28.828 53.6491V23.8638C28.828 20.6572 31.4488 18.0363 34.6554 18.0363H39.3421C42.5488 18.0363 45.1696 20.6572 45.1696 23.8638V53.6491C45.1388 54.9133 44.1213 55.9616 42.8263 55.9616ZM33.4838 51.3366H40.5446V23.8638C40.5446 23.2163 40.0204 22.6613 39.3421 22.6613H34.6554C34.0079 22.6613 33.4529 23.1855 33.4529 23.8638V51.3366H33.4838Z" fill="#00DA71"/>
<path d="M54.5152 55.9616H42.8293C41.5652 55.9616 40.5168 54.9133 40.5168 53.6491V39.6196C40.5168 38.3555 41.5652 37.3071 42.8293 37.3071H51.0002C54.2068 37.3071 56.8277 39.928 56.8277 43.1346V53.6491C56.8277 54.9133 55.8102 55.9616 54.5152 55.9616ZM45.1418 51.3366H52.2027V43.1346C52.2027 42.4871 51.6785 41.9321 51.0002 41.9321H45.1418V51.3366Z" fill="#00DA71"/>
<path d="M48.7674 70H29.2326C11.5535 70 4 62.8781 4 46.2093V27.7907C4 11.1219 11.5535 4 29.2326 4H48.7674C66.4465 4 74 11.1219 74 27.7907V46.2093C74 62.8781 66.4465 70 48.7674 70ZM29.2326 8.60465C14.2233 8.60465 8.88372 13.6391 8.88372 27.7907V46.2093C8.88372 60.3609 14.2233 65.3953 29.2326 65.3953H48.7674C63.7767 65.3953 69.1163 60.3609 69.1163 46.2093V27.7907C69.1163 13.6391 63.7767 8.60465 48.7674 8.60465H29.2326Z" fill="#00DA71"/>
</svg>
